<svg id="Camada_1" data-name="Camada 1" xmlns="http://www.w3.org/2000/svg" viewBox="0 0 170.98 160.34"><defs><style>.cls-1{fill:#1b1b1b;}</style></defs><title>icon-funstart-black</title><path class="cls-1" d="M60.67,44.35h0c-2.4.15-4.81-1-6.94-2.65a39.43,39.43,0,0,0-23.81-7.85c-11.16,0-21.64,21-21.64,21C-4.14,83.71,0,101.94,4.11,110.92a17.43,17.43,0,0,0,21.76,9c13.45-4.85,24.65-21.85,24.65-21.85H61.45v-53a.76.76,0,0,0-.77-.75h0ZM45.19,62.23h0a2.28,2.28,0,0,1-2.31,2.25h0l-5.34-.06h0a2.29,2.29,0,0,0-2.35,2.22V72a2.28,2.28,0,0,1-2.32,2.24H27.53a2.3,2.3,0,0,1-2.28-2.3V66.64h0A2.27,2.27,0,0,0,23,64.35h0l-5.34-.06h0a2.28,2.28,0,0,1-2.31-2.23V56.73a2.3,2.3,0,0,1,2.3-2.3h5.44a2.29,2.29,0,0,0,2.33-2.24v-5.3h0a2.27,2.27,0,0,1,2.33-2.19h5.34A2.29,2.29,0,0,1,35.33,47v0h0v5.34a2.29,2.29,0,0,0,2.31,2.26h0l5.34,0h0A2.29,2.29,0,0,1,45.25,57h0ZM60.73,85.32H48.6l-.3-.12-.21-.15h0L48,84.83V78.66a1.33,1.33,0,0,0,.1-.28l.2-.18.16-.12a1.18,1.18,0,0,0,.19-.11l.47-.14.54-.09h11Z" transform="translate(0 0)"/><path class="cls-1" d="M168.3,75,73.6,2.64c-5.35-4.43-8.83-2.49-10.83,0a10.25,10.25,0,0,0-2.16,6.43V85.35h.47c5.41,0,9.24-1.26,11.54-3.7A9.63,9.63,0,0,0,75,74.19s-.09,0-.09,0a.17.17,0,0,0-.12,0C72.37,77.32,63.64,77.75,61,77.8h-.37V44.74a1,1,0,0,1,0-.35l.27-.07h0a6.05,6.05,0,0,0,1.53-.19c1.8-.18,3.79-1.44,5.9-3.06a39,39,0,0,1,23.7-7.93c11.12,0,21.21,20.33,21.64,21.23,12.46,29.39,7.9,47.93,4.08,56.39a17.55,17.55,0,0,1-15.94,10.31,17.29,17.29,0,0,1-6-1.07C83.3,115.34,72.66,99.92,71.48,98.12H60.61v54.71a7.65,7.65,0,0,0,12.21,6l.08-.06,95.4-72.7C174.33,81.07,168.3,75,168.3,75Z" transform="translate(0 0)"/><path class="cls-1" d="M104.73,60.9a10.17,10.17,0,1,0,0,.13Z" transform="translate(0 0)"/></svg>