<svg id="Camada_1" data-name="Camada 1" xmlns="http://www.w3.org/2000/svg" viewBox="0 0 575.66 177.84"><defs><style>.cls-1{fill:#e76522;}</style></defs><title>logo-funstart</title><path class="cls-1" d="M67.29,49.17h0C64.63,49.34,62,48,59.6,46.24a43.7,43.7,0,0,0-26.4-8.71c-12.38,0-24,23.31-24,23.31C-4.57,92.84,0,113.05,4.58,123A19.32,19.32,0,0,0,28.7,133C43.62,127.6,56,108.78,56,108.78H68.15V50a.85.85,0,0,0-.85-.83ZM50.13,69h0a2.53,2.53,0,0,1-2.57,2.49h0l-5.92-.06h0A2.53,2.53,0,0,0,39,73.89v5.89a2.54,2.54,0,0,1-2.58,2.49l-5.91-.06A2.55,2.55,0,0,1,28,79.66l0-5.83h0a2.53,2.53,0,0,0-2.52-2.54h0l-5.92-.06h0A2.53,2.53,0,0,1,17,68.73v-.06l.06-5.83a2.54,2.54,0,0,1,2.58-2.49l5.92.06a2.54,2.54,0,0,0,2.58-2.49V52h0a2.53,2.53,0,0,1,2.58-2.48h0l5.92.06h0a2.53,2.53,0,0,1,2.51,2.55h0l0,5.83v.09a2.53,2.53,0,0,0,2.56,2.5h0l5.92.06h0a2.53,2.53,0,0,1,2.51,2.55h0ZM67.3,94.6H53.91l-.34-.13-.23-.17v-.06L53.28,94V87.21a2.83,2.83,0,0,0,.11-.31,2.09,2.09,0,0,0,.22-.2l.18-.13a1.13,1.13,0,0,0,.21-.12,4.48,4.48,0,0,0,.52-.16,5.58,5.58,0,0,0,.59-.1H67.3Z" transform="translate(-0.02 0)"/><path class="cls-1" d="M186.62,83.11,81.62,2.93c-5.93-4.92-9.79-2.76-12,0A11.32,11.32,0,0,0,67.22,10V94.63h.52c6,0,10.25-1.39,12.8-4.1a10.67,10.67,0,0,0,2.6-8.27c0-.06-.1-.06-.1-.06a.16.16,0,0,0-.13.06c-2.65,3.47-12.33,3.94-15.23,4h-.41V49.6a1.21,1.21,0,0,1,0-.38l.3-.08h0a6.86,6.86,0,0,0,1.69-.21c2-.2,4.21-1.6,6.54-3.39a43.29,43.29,0,0,1,26.28-8.8c12.33,0,23.52,22.54,24,23.54,13.81,32.59,8.75,53.14,4.52,62.53a19.47,19.47,0,0,1-17.67,11.45,19,19,0,0,1-6.63-1.19c-13.9-5.16-25.69-22.26-27-24.26H67.22v60.66a8.49,8.49,0,0,0,13.54,6.69l.09-.07L186.62,95.4C193.31,89.9,186.62,83.11,186.62,83.11Z" transform="translate(-0.02 0)"/><path class="cls-1" d="M116.15,67.52a11.27,11.27,0,1,0,0,.15Z" transform="translate(-0.02 0)"/><path class="cls-1" d="M209.13,9.75h32.78v14.7H228.49V38.37h9.73v14h-9.7V83.21H209.13Z" transform="translate(-0.02 0)"/><path class="cls-1" d="M290.59,9.75V58.82A83.91,83.91,0,0,1,290,70.57a16.33,16.33,0,0,1-3.26,6.94c-3.63,4.71-9.56,7.21-17.61,7.21a29.65,29.65,0,0,1-11.77-2.18,18,18,0,0,1-7.63-5.67,15.32,15.32,0,0,1-3-7.35c-.33-2.58-.46-8-.46-16.32V9.75h19.35l0,52.07c-.19,3.08-.1,5.12.32,6.12a2.49,2.49,0,0,0,4.55,0c.37-1,.55-3.31.55-7l.09-51.25Z" transform="translate(-0.02 0)"/><path class="cls-1" d="M341.3,9.75V83.18H326L314.83,51.11V83.18H298.09V9.75h15.26l11.27,31.43V9.75Z" transform="translate(-0.02 0)"/><path class="cls-1" d="M390,43.13,372,32V26.53c0-2.54-.23-4.17-.69-4.85a2.59,2.59,0,0,0-2.3-1c-2.34,0-3.54,1.86-3.54,5.67a11.67,11.67,0,0,0,1,5.53c.64,1.22,2.48,2.72,5.47,4.49,8.6,5,14,9.2,16.28,12.42s3.35,8.44,3.35,15.65c0,5.22-.64,9.07-1.88,11.56s-3.63,4.58-7.17,6.26a28.71,28.71,0,0,1-12.42,2.5,27.9,27.9,0,0,1-13.28-2.91c-3.63-1.95-6-4.39-7.17-7.39S348,67.21,348,61.72V45.17l18,11.7v8.94c0,2.76.23,4.53.74,5.3a3,3,0,0,0,2.71,1.18c2.57,0,3.81-2,3.81-5.94,0-4.31-.59-7.17-1.79-8.48s-4.23-3.54-9.06-6.67a89.34,89.34,0,0,1-9.56-6.84c-3.12-2.86-5.42-7.71-5.42-15.51,0-5.63.73-9.75,2.16-12.34,2.94-5.21,9.65-8.3,18.85-8.3a31.33,31.33,0,0,1,12.82,2.4c3.54,1.59,5.89,3.63,7,6.08S390,23.22,390,29.07Z" transform="translate(-0.02 0)"/><path class="cls-1" d="M437.3,9.71l.23,14.83-12.31-.09V83.18H405.9V24.45l-12,.09V9.71Z" transform="translate(-0.02 0)"/><path class="cls-1" d="M468.65,9.8l13.24,73.38h-19l-1-13.2h-8.68L452,83.23,433,83.14,445.3,9.76ZM460.56,57c-1-8.3-2-18.59-2.94-30.79-2,14-3.17,24.31-3.68,30.79Z" transform="translate(-0.02 0)"/><path class="cls-1" d="M485.22,9.75h13.69c9.15,0,15.31.41,18.58,1.23a13.55,13.55,0,0,1,7.86,5.21c2,2.68,3,7.21,3.08,13.61,0,5-.74,8.61-2.16,10.75a12,12,0,0,1-6.58,4.62c3.82.95,6.07,2.13,6.76,3.63a22.26,22.26,0,0,1,1.47,4.2c.32,1.32.51,4.9.51,10.84V83.18H511.5V58.78c-.28-3.54-.83-5.81-1.7-6.81s-2.57-1.67-5.24-1.9V83.18H485.22Zm19.35,28.89a12.19,12.19,0,0,0,5.1-.86c1.24-.59,1.84-2.54,1.84-5.76V28c0-2.31-.6-3.85-1.79-4.58a10,10,0,0,0-5.15-1.09Z" transform="translate(-0.02 0)"/><path class="cls-1" d="M575.45,9.71l.23,14.83-12.28-.09V83.18H544V24.45l-12,.09V9.71Z" transform="translate(-0.02 0)"/><path class="cls-1" d="M311.22,129.38,294,129.29c-.28-8.62-.78-13.47-1.52-14.51a3.49,3.49,0,0,0-3.12-1.59,5,5,0,0,0-3.77,1.45c-.83,1-1.29,5.3-1.43,13.11v19.81c.14,9.53.6,14.79,1.43,15.83a4.71,4.71,0,0,0,3.9,1.45c2.12,0,3.31-1.68,3.64-5s-.6-11.2-2.72-23.49h20.78v39.41H298.09a56.35,56.35,0,0,1-12.87,1.55A18.85,18.85,0,0,1,276,175a17.63,17.63,0,0,1-6.44-5.81,18.4,18.4,0,0,1-2.76-7.21,88.32,88.32,0,0,1-.55-11.38V128.79c0-7,.37-12.11,1.15-15.29s2.94-6.07,6.58-8.7,8.36-4,14.11-4,10.35,1.19,14.06,3.45,6.16,5,7.31,8.21,1.7,7.71,1.7,13.74Z" transform="translate(-0.02 0)"/><path class="cls-1" d="M350,102.39l13.22,73.38h-19l-1-13.2h-8.69l-1.15,13.2-19.08-.09,12.32-73.38ZM342,149.56c-1-8.3-2-18.59-2.95-30.79-2,14-3.17,24.3-3.67,30.79Z" transform="translate(-0.02 0)"/><path class="cls-1" d="M426.22,102.35v73.42H409.35V130.83l-6.8,44.94h-12l-7.12-44.94v44.94H366.55V102.35h23.86l6.25,31.43,5.56-31.39Z" transform="translate(-0.02 0)"/><path class="cls-1" d="M434,102.35h34.12l.08,14.65H453.39v14H464v13.92H453.39v16.15h15.12v14.7H434Z" transform="translate(-0.02 0)"/><path class="cls-1" d="M514.16,135.73l-18-11.16v-5.44c0-2.54-.23-4.17-.69-4.85a2.62,2.62,0,0,0-2.3-1c-2.34,0-3.54,1.86-3.54,5.67a11.73,11.73,0,0,0,1,5.54c.64,1.22,2.48,2.72,5.47,4.48,8.6,5,14,9.21,16.28,12.43s3.35,8.44,3.35,15.65c0,5.21-.64,9.07-1.88,11.56s-3.64,4.58-7.17,6.26a28.7,28.7,0,0,1-12.42,2.49,28,28,0,0,1-13.28-2.9c-3.63-2-6-4.4-7.17-7.39s-1.71-7.26-1.71-12.75v-16.5l18,11.7v8.93c0,2.77.23,4.54.74,5.31a3,3,0,0,0,2.71,1.18c2.57,0,3.81-2,3.81-5.94,0-4.31-.59-7.17-1.79-8.48s-4.23-3.54-9.06-6.67A88.43,88.43,0,0,1,477,137c-3.12-2.86-5.42-7.71-5.42-15.51,0-5.62.73-9.75,2.16-12.33,2.94-5.22,9.65-8.3,18.85-8.3a31.17,31.17,0,0,1,12.82,2.4c3.54,1.59,5.89,3.63,7,6.08s1.74,6.53,1.74,12.38Z" transform="translate(-0.02 0)"/></svg>